<?xml version="1.0" encoding="utf-8"?>
<!-- Generator: Adobe Illustrator 19.2.0, SVG Export Plug-In . SVG Version: 6.00 Build 0)  -->
<svg version="1.1" id="Layer_1" xmlns="http://www.w3.org/2000/svg" xmlns:xlink="http://www.w3.org/1999/xlink" x="0px" y="0px"
	 viewBox="0 0 150 150" style="enable-background:new 0 0 150 150;" xml:space="preserve">
<style type="text/css">
	.st0{fill:#C29F54;}
	.st1{fill:#FFFFFF;}
	.st2{fill:#FD94FF;}
	.st3{fill:#72A788;}
	.st4{fill:#A2DDD1;}
	.st5{fill:#5D8B71;}
	.st6{fill:#E6E4DA;}
	.st7{fill:#8BB9B1;}
	.st8{fill:#365C3C;}
	.st9{fill:#F8F8F5;}
	.st10{fill:#E9E9E7;}
	.st11{fill:#C6D6A3;}
	.st12{fill:#A6BB88;}
	.st13{fill:#7A9E5B;}
	.st14{fill:#FFFCE6;}
	.st15{fill:#F37A5D;}
	.st16{fill:#DC6F54;}
	.st17{fill:#B89278;}
	.st18{fill:#A3826B;}
	.st19{fill:#EBE9D7;}
	.st20{fill:#84655A;}
	.st21{fill:#FFD425;}
	.st22{fill:#FFC628;}
	.st23{fill:#FFBA08;}
	.st24{fill:#937C66;}
	.st25{fill:#A58B71;}
	.st26{fill:#9D856C;}
	.st27{fill:#AE9277;}
	.st28{fill:#8C7661;}
	.st29{fill:#FCEF98;}
	.st30{fill:#E4E3D3;}
	.st31{fill:#B97595;}
	.st32{fill:#6D503E;}
	.st33{fill:#C2D4DD;}
	.st34{fill:#915B76;}
	.st35{fill:#D1D0C3;}
	.st36{fill:#B7C9D1;}
	.st37{fill:#A96B89;}
	.st38{fill:#674B3A;}
	.st39{fill:#FFFDE7;}
	.st40{fill:#D385A9;}
	.st41{fill:#7B5A46;}
	.st42{fill:#D9E6ED;}
	.st43{fill:#EFEFE1;}
	.st44{fill:#0D6EA9;}
	.st45{fill:#B33335;}
	.st46{fill:#E59B30;}
	.st47{fill:#A6A8AB;}
	.st48{fill:#3A704D;}
	.st49{fill:#58595B;}
	.st50{fill:#414042;}
	.st51{fill:#2B496C;}
	.st52{fill:#B2B5B7;}
	.st53{fill:#302B29;}
	.st54{fill:#D5C7A7;}
	.st55{fill:#C0AE8C;}
	.st56{fill:#203C5E;}
	.st57{fill:#A5A8A7;}
	.st58{fill:#201D1C;}
	.st59{fill:#FBCE3F;}
	.st60{fill:#F8BD32;}
	.st61{fill:#654D31;}
	.st62{fill:#EBA537;}
	.st63{fill:#A1485F;}
	.st64{fill:#E1BEA1;}
	.st65{fill:#924055;}
	.st66{fill:#B25169;}
	.st67{fill:#FACFE2;}
	.st68{fill:#F9C5DC;}
	.st69{fill:#D1B297;}
	.st70{fill:#753E56;}
	.st71{fill:#BC6254;}
	.st72{fill:#B15C4F;}
	.st73{fill:#90AA4E;}
	.st74{fill:#859D47;}
	.st75{fill:#627738;}
	.st76{fill:#7F9842;}
	.st77{fill:#77903C;}
	.st78{fill:#9A4F44;}
	.st79{fill:#8FD2E6;}
	.st80{fill:#78CBE4;}
	.st81{fill:#35B8CC;}
	.st82{fill:#00A1B6;}
	.st83{fill:#FFFDB9;}
	.st84{fill:#FFF68A;}
	.st85{fill:#FFE86A;}
	.st86{fill:#FFE142;}
	.st87{fill:#FFA1E9;}
	.st88{fill:#FF90E6;}
	.st89{fill:#E147BB;}
	.st90{fill:#DF3FAF;}
	.st91{fill:#925BD1;}
	.st92{fill:#FFD700;}
	.st93{fill:#FFEE75;}
	.st94{fill:#B3237A;}
	.st95{fill:#FF7CDC;}
	.st96{fill:#007E93;}
	.st97{fill:#5AB2D3;}
	.st98{fill:#72C9CB;}
	.st99{fill:#6D5A4D;}
	.st100{fill:#F3869B;}
	.st101{fill:#FDE2DD;}
	.st102{fill:#ECCACA;}
	.st103{fill:#F593A2;}
	.st104{fill:#FFD76D;}
	.st105{fill:#E3C063;}
	.st106{fill:#E37D91;}
	.st107{fill:#CA7083;}
	.st108{fill:#FFE27A;}
	.st109{fill:#48484A;}
	.st110{fill:#424244;}
	.st111{fill:#6B5C4E;}
	.st112{fill:#D9F1F4;}
	.st113{fill:#3F3E40;}
	.st114{fill:#9BBECA;}
	.st115{fill:#564A3E;}
	.st116{fill:#B8D9E2;}
	.st117{fill:#645649;}
	.st118{fill:#EBFFFF;}
	.st119{fill:#766556;}
	.st120{fill:#353738;}
	.st121{fill:#333132;}
	.st122{fill:#3B3B3C;}
	.st123{fill:#231F20;}
	.st124{fill:#D0D2D3;}
	.st125{fill:#6ECAF3;}
	.st126{fill:#CED0D1;}
	.st127{fill:#F6CC78;}
	.st128{fill:#BBBDBF;}
	.st129{fill:#FFB4D3;}
	.st130{opacity:0.2;fill:#FFFFFF;}
	.st131{fill:#9D6F4A;}
	.st132{fill:#A97A4F;}
	.st133{fill:#FEC844;}
	.st134{fill:#C32A30;}
	.st135{fill:#A72226;}
	.st136{fill:#DCA43B;}
	.st137{fill:#8A171A;}
	.st138{fill:#8B6540;}
	.st139{fill:#5DFDFF;}
	.st140{fill:#8B1D24;}
	.st141{fill:#A72730;}
	.st142{fill:#770D18;}
	.st143{fill:#5D050C;}
	.st144{fill:#63C4DE;}
	.st145{fill:#ACC665;}
	.st146{fill:#EDDD42;}
	.st147{fill:#EBC919;}
	.st148{fill:#9CB45C;}
	.st149{fill:#EBD339;}
	.st150{fill:#A4BD61;}
	.st151{fill:#808184;}
	.st152{fill:#E5E6E7;}
	.st153{fill:none;stroke:#238596;stroke-width:4;stroke-linecap:round;stroke-linejoin:round;stroke-miterlimit:10;}
</style>
<path class="st30" d="M105.35,30.58l-0.1,0.47c-0.88-0.21-1.78-0.38-2.7-0.5c0.56-0.11,1.13-0.2,1.7-0.28
	c-1.3-0.17-2.62-0.27-3.96-0.27c-1.99,0-3.94,0.19-5.82,0.56c-7.25,1.02-13.66,4.68-18.21,9.98l-0.65,0.51
	C70.13,34.04,61.59,29.54,52,29.54c-2.18,0-4.31,0.23-6.36,0.68l-0.12-0.56C46.7,14.19,59.63,2,75.4,2c0.59,0,1.17,0.01,1.74,0.06
	c0.12,0,0.22,0.01,0.33,0.02c8.8,0.59,16.55,4.98,21.64,11.55C102.78,18.35,105.06,24.21,105.35,30.58z"/>
<path class="st31" d="M127.83,56.54l0.09,0.29c-7.59,2.49-25.04,4.32-45.99,4.65c0.05-0.64,0.07-1.29,0.07-1.94
	c0-6.97-2.38-13.4-6.39-18.49l0.65-0.51c4.55-5.3,10.96-8.96,18.21-9.98c1.35-0.18,2.72-0.28,4.12-0.28c1.35,0,2.67,0.09,3.96,0.27
	c0.92,0.12,1.82,0.29,2.7,0.5c0.04,0,0.08,0.01,0.12,0.02c10.17,2.39,18.29,10.07,21.33,19.98
	C127.25,52.81,127.63,54.65,127.83,56.54z"/>
<path class="st32" d="M82,59.54c0,0.65-0.02,1.3-0.07,1.94c-2.27,0.04-4.58,0.06-6.93,0.06c-24,0-44.54-1.95-52.94-4.72l0.09-0.28
	c0.19-1.9,0.55-3.74,1.07-5.51C26.3,40.6,34.9,32.53,45.64,30.22c2.05-0.45,4.18-0.68,6.36-0.68c9.59,0,18.13,4.5,23.61,11.51
	C79.62,46.14,82,52.57,82,59.54z"/>
<path class="st33" d="M81.93,61.48c20.95-0.33,38.4-2.16,45.99-4.65c2.23-0.73,3.61-1.52,3.98-2.34l0.1,0.05
	c-3.33,28.81-27.56,51.16-56.97,51.16c-29.4,0-53.64-22.35-56.97-51.16l0.05-0.03c0.38,0.81,1.75,1.59,3.95,2.31
	C30.46,59.59,51,61.54,75,61.54C77.35,61.54,79.66,61.52,81.93,61.48z"/>
<path class="st34" d="M104.25,30.27c-0.57,0.08-1.14,0.17-1.7,0.28c-1.29-0.18-2.61-0.27-3.96-0.27c-1.4,0-2.77,0.1-4.12,0.28
	c1.88-0.37,3.83-0.56,5.82-0.56C101.63,30,102.95,30.1,104.25,30.27z"/>
<path class="st33" d="M75.34,137.42c15.83,0,28.66,2.36,28.66,5.29c0,2.92-12.83,5.29-28.66,5.29c-15.84,0-28.67-2.37-28.67-5.29
	C46.67,139.78,59.5,137.42,75.34,137.42z"/>
<g>
	<path class="st35" d="M74.783,40.051c0.281,0.329,0.56,0.658,0.827,0.999l0.65-0.51c0.945-1.101,1.974-2.126,3.071-3.076
		C77.733,38.193,76.212,39.06,74.783,40.051z"/>
	<path class="st35" d="M99.11,13.63C94.02,7.06,86.27,2.67,77.47,2.08c-0.11-0.01-0.21-0.02-0.33-0.02C76.57,2.01,75.99,2,75.4,2
		c-7.47,0-14.299,2.738-19.547,7.261C59.654,7.515,63.883,6.54,68.34,6.54c0.59,0,1.17,0.01,1.74,0.06c0.12,0,0.22,0.01,0.33,0.02
		c8.8,0.59,16.55,4.98,21.64,11.55c2.686,3.454,4.616,7.522,5.578,11.95c0.878-0.076,1.765-0.12,2.662-0.12
		c1.34,0,2.66,0.1,3.96,0.27c-0.57,0.08-1.14,0.17-1.7,0.28c0.92,0.12,1.82,0.29,2.7,0.5l0.1-0.47
		C105.06,24.21,102.78,18.35,99.11,13.63z"/>
</g>
<path class="st36" d="M75.34,137.42c-4.288,0-8.351,0.174-12.003,0.484C73.172,138.741,80,140.573,80,142.71
	c0,2.13-6.828,3.965-16.663,4.804C66.989,147.825,71.052,148,75.34,148c15.83,0,28.66-2.37,28.66-5.29
	C104,139.78,91.17,137.42,75.34,137.42z"/>
<path class="st37" d="M87.41,35.1c1.35-0.18,2.72-0.28,4.12-0.28c1.35,0,2.67,0.09,3.96,0.27c0.92,0.12,1.82,0.29,2.7,0.5
	c0.04,0,0.08,0.01,0.12,0.02c10.17,2.39,18.29,10.07,21.33,19.98c0.304,0.972,0.55,1.97,0.748,2.986
	c3.07-0.531,5.616-1.117,7.531-1.746l-0.09-0.29c-0.2-1.89-0.58-3.73-1.13-5.49c-3.04-9.91-11.16-17.59-21.33-19.98
	c-0.04-0.01-0.08-0.02-0.12-0.02c-0.88-0.21-1.78-0.38-2.7-0.5c-1.29-0.18-2.61-0.27-3.96-0.27c-1.4,0-2.77,0.1-4.12,0.28
	c-5.744,0.808-10.957,3.278-15.139,6.904C81.854,36.312,84.566,35.5,87.41,35.1z"/>
<path class="st38" d="M75.61,41.05C70.13,34.04,61.59,29.54,52,29.54c-2.18,0-4.31,0.23-6.36,0.68
	c-4.976,1.07-9.482,3.389-13.203,6.594c1.946-0.893,3.999-1.593,6.143-2.054c2.05-0.45,4.18-0.68,6.36-0.68
	c9.59,0,18.13,4.5,23.61,11.51c3.518,4.465,5.779,9.962,6.282,15.95c0.056,0,0.112,0,0.168,0c2.35,0,4.66-0.02,6.93-0.06
	c0.05-0.64,0.07-1.29,0.07-1.94C82,52.57,79.62,46.14,75.61,41.05z"/>
<g>
	<path class="st36" d="M131.9,54.49c-0.37,0.82-1.75,1.61-3.98,2.34c-1.712,0.562-3.931,1.089-6.573,1.574
		c-4.655,25.292-25.545,44.802-51.346,47.067c1.658,0.146,3.334,0.228,5.029,0.228c29.41,0,53.64-22.35,56.97-51.16L131.9,54.49z"/>
</g>
<g>
	<path class="st39" d="M105.348,32.58c-1.062,0-1.947-0.837-1.996-1.909c-0.264-5.787-2.276-11.256-5.82-15.813
		C92.634,8.536,85.273,4.607,77.336,4.075l-0.37-0.023C76.442,4.006,75.881,4,75.4,4C60.868,4,48.618,15.338,47.514,29.812
		c-0.084,1.102-1.045,1.923-2.146,1.842c-1.102-0.084-1.926-1.045-1.842-2.146C44.788,12.962,58.789,0,75.4,0
		c0.546,0,1.188,0.008,1.839,0.061c0.13,0.004,0.249,0.013,0.372,0.024c9.069,0.608,17.484,5.099,23.08,12.32
		c4.053,5.211,6.354,11.466,6.656,18.084c0.05,1.104-0.804,2.038-1.907,2.089C105.41,32.579,105.379,32.58,105.348,32.58z"/>
	<path class="st40" d="M127.828,58.54c-1.011,0-1.878-0.763-1.987-1.789c-0.186-1.751-0.538-3.469-1.05-5.104
		c-2.834-9.237-10.389-16.348-19.741-18.597h-0.035l-0.229-0.055c-0.838-0.2-1.678-0.355-2.495-0.462
		c-2.438-0.341-4.928-0.34-7.558,0.009c-6.575,0.926-12.603,4.229-16.956,9.301c-0.719,0.839-1.981,0.937-2.82,0.215
		c-0.838-0.72-0.935-1.982-0.215-2.82c4.987-5.81,11.895-9.595,19.449-10.658c2.997-0.399,5.889-0.394,8.635-0.01
		c0.898,0.117,1.834,0.288,2.768,0.507c0.118,0.018,0.218,0.042,0.295,0.062c10.733,2.521,19.464,10.698,22.724,21.324
		c0.587,1.878,0.993,3.854,1.207,5.866c0.116,1.099-0.68,2.083-1.778,2.2C127.97,58.536,127.898,58.54,127.828,58.54z
		 M104.912,33.018c0,0,0.003,0,0.009,0.002C104.916,33.018,104.912,33.017,104.912,33.018z"/>
	<path class="st41" d="M81.93,63.51c-1.104,0-2-0.865-2-1.97l0.006-0.218C79.979,60.778,80,60.195,80,59.54
		c0-6.337-2.062-12.303-5.961-17.253C68.697,35.455,60.666,31.54,52,31.54c-2.018,0-4.014,0.213-5.933,0.634
		c-10.011,2.153-18.027,9.596-20.93,19.423c-0.486,1.658-0.822,3.389-0.997,5.142c-0.109,1.1-1.091,1.905-2.188,1.792
		c-1.1-0.109-1.901-1.09-1.792-2.188c0.199-2,0.583-3.977,1.141-5.875c3.317-11.235,12.482-19.742,23.918-22.202
		c2.192-0.48,4.477-0.725,6.781-0.725c9.905,0,19.086,4.476,25.186,12.278C81.643,45.475,84,52.296,84,59.54
		c0,0.755-0.024,1.435-0.075,2.079C83.854,62.661,82.987,63.51,81.93,63.51z"/>
	<g>
		<path class="st42" d="M64.308,91.284c-10.108-3.401-18.994-9.623-25.696-17.994c-0.691-0.862-1.949-1.001-2.812-0.312
			c-0.862,0.69-1.002,1.949-0.312,2.812c7.183,8.971,16.707,15.64,27.544,19.285c0.212,0.071,0.427,0.105,0.638,0.105
			c0.836,0,1.614-0.527,1.896-1.363C65.918,92.771,65.354,91.637,64.308,91.284z"/>
		<path class="st42" d="M134,54.04c0-2.569-2.981-3.926-5.811-4.809c0.145,0.409,0.295,0.815,0.423,1.232
			c0.362,1.157,0.646,2.354,0.867,3.571c-0.421,0.232-1.096,0.54-2.183,0.896c-7.575,2.485-24.971,4.229-45.402,4.551
			c-2.258,0.04-4.557,0.06-6.895,0.06c-22.91,0-43.934-1.856-52.317-4.62c-1.102-0.361-1.78-0.673-2.195-0.905
			c0.208-1.203,0.474-2.391,0.814-3.548c0.12-0.406,0.264-0.801,0.399-1.2c-2.796,0.884-5.7,2.238-5.7,4.774
			c0,0.146,0.018,0.288,0.048,0.425c0.011,0.073,0.008,0.145,0.024,0.219c0.002,0.029-0.002,0.056,0.001,0.085
			c3.422,29.608,27.892,52.057,57.267,52.891v27.778c-7.03,0.088-13.589,0.63-18.638,1.561c-6.938,1.279-10.032,3.041-10.032,5.711
			c0,2.666,3.094,4.426,10.032,5.707C60.233,149.438,67.562,150,75.34,150c7.773,0,15.1-0.562,20.63-1.583
			c6.937-1.281,10.03-3.041,10.03-5.707c0-2.67-3.094-4.432-10.031-5.711c-5.047-0.931-11.603-1.473-18.629-1.561v-27.792
			c29.099-1.129,53.249-23.476,56.646-52.876c0.019-0.165,0.01-0.326-0.011-0.483C133.985,54.205,134,54.124,134,54.04z
			 M101.477,142.708C98.949,144.038,90.06,146,75.34,146c-14.727,0-23.618-1.962-26.146-3.292
			c2.407-1.266,10.615-3.103,24.146-3.271V142c0,1.104,0.896,2,2,2s2-0.896,2-2v-2.563
			C90.865,139.605,99.07,141.442,101.477,142.708z M75.03,103.7c-26.692,0-49.349-19.175-54.334-45.24
			c0.24,0.087,0.477,0.174,0.737,0.259c8.882,2.929,29.907,4.82,53.566,4.82c2.361,0,4.684-0.02,6.961-0.06
			c20.803-0.328,38.652-2.148,46.581-4.75c0.292-0.096,0.56-0.193,0.825-0.29C124.39,84.515,101.728,103.7,75.03,103.7z"/>
	</g>
</g>
</svg>
